<svg xmlns="http://www.w3.org/2000/svg" width="1440" height="900" viewBox="0 0 1440 900" role="img" aria-label="Lightbridge console — Admin budget refill review queue, dark theme">
<title>Lightbridge console — Admin / Budget refill review</title>
<style>
  .m   { font-family: ui-monospace, "IBM Plex Mono", "SFMono-Regular", Menlo, monospace; }
  .s   { font-family: Inter, ui-sans-serif, system-ui, sans-serif; }
  .lab { font-size: 10px; letter-spacing: .09em; fill: #606060; }
  .hi  { fill: #eeeeee; }
  .bo  { fill: #b4b4b4; }
  .mu  { fill: #606060; }
  .ac  { fill: #DA5C2C; }
  .rule{ stroke: #202020; stroke-width: 1; }
  .ctl { fill: #111111; stroke: #3a3a3a; stroke-width: 1; }
</style>

<rect width="1440" height="900" fill="#000000"/>

<!-- header (logo slot is admin-config driven) -->
<rect x="0" y="0" width="1440" height="56" fill="#111111"/>
<rect x="20" y="18" width="20" height="20" rx="2" fill="#202020"/>
<path d="M25 33 L30 23 L35 33 Z" fill="#606060"/>
<text class="m hi" x="50" y="32" font-size="12" letter-spacing=".14em">LIGHTBRIDGE</text>
<line x1="168" y1="16" x2="168" y2="40" stroke="#3a3a3a"/>
<text class="m bo" x="184" y="32" font-size="12">adorsys-gis</text>
<path d="M262 26 l4 4 l4 -4" fill="none" stroke="#606060"/>
<text class="m mu" x="1362" y="32" font-size="11" text-anchor="end">sam@adorsys.com</text>
<circle cx="1398" cy="28" r="13" fill="#202020"/>
<text class="m bo" x="1398" y="32" font-size="10" text-anchor="middle">SL</text>

<!-- left rail -->
<rect x="16" y="72" width="208" height="172" rx="2" fill="#191919"/>
<rect x="38" y="96" width="10" height="10" rx="1" fill="none" stroke="#606060"/>
<text class="m bo" x="58" y="105" font-size="12">Overview</text>
<path d="M38 138 h10 M38 141 h10 M38 144 h6" stroke="#606060"/>
<text class="m bo" x="58" y="143" font-size="12">Api-Keys</text>
<rect x="38" y="172" width="10" height="10" rx="1" fill="none" stroke="#606060"/>
<text class="m bo" x="58" y="181" font-size="12">Manage</text>
<line x1="22" y1="192" x2="218" y2="192" class="rule"/>
<rect x="22" y="200" width="196" height="34" rx="2" fill="#202020"/>
<rect x="22" y="200" width="2" height="34" fill="#DA5C2C"/>
<circle cx="43" cy="217" r="5" fill="none" stroke="#eeeeee"/>
<text class="m hi" x="58" y="221" font-size="12">Admin</text>
<text class="m mu" x="218" y="221" font-size="9" text-anchor="end" letter-spacing=".08em">ROLE</text>

<rect x="16" y="256" width="208" height="124" rx="2" fill="#191919"/>
<text class="m lab" x="30" y="278">ADMIN</text>
<rect x="22" y="288" width="196" height="28" rx="2" fill="#202020"/>
<rect x="22" y="288" width="2" height="28" fill="#DA5C2C"/>
<text class="m hi" x="40" y="306" font-size="12">Budget review</text>
<text class="m ac" x="210" y="306" font-size="10" text-anchor="end">4</text>
<text class="m bo" x="40" y="336" font-size="12">Org config</text>
<text class="m bo" x="40" y="364" font-size="12">Roles</text>
<text class="m mu" x="210" y="364" font-size="10" text-anchor="end">3</text>

<!-- centre -->
<text class="m hi" x="248" y="102" font-size="22">Budget refill review</text>
<text class="s mu" x="248" y="122" font-size="11">4 requests awaiting a decision · oldest submitted 3 days ago</text>

<text class="m hi" x="248" y="152" font-size="12">Pending (4)</text>
<rect x="248" y="160" width="74" height="2" fill="#DA5C2C"/>
<text class="m mu" x="346" y="152" font-size="12">Decided (26)</text>
<line x1="248" y1="161" x2="1120" y2="161" class="rule"/>

<text class="m lab" x="248" y="184">SUBMITTED</text>
<text class="m lab" x="372" y="184">PROJECT</text>
<text class="m lab" x="540" y="184">ACCOUNT</text>
<text class="m lab" x="756" y="184" text-anchor="end">CONSUMED</text>
<text class="m lab" x="856" y="184" text-anchor="end">CEILING</text>
<text class="m lab" x="946" y="184" text-anchor="end">REFILL</text>
<text class="m lab" x="1120" y="184" text-anchor="end">REQUESTER</text>
<line x1="248" y1="196" x2="1120" y2="196" class="rule"/>

<!-- selected row drives the right panel -->
<rect x="248" y="196" width="872" height="52" fill="#111111"/>
<rect x="248" y="196" width="2" height="52" fill="#DA5C2C"/>
<text class="m bo" x="264" y="227" font-size="11">3 d ago</text>
<text class="m hi" x="372" y="227" font-size="12">gateway-prod</text>
<text class="m bo" x="540" y="227" font-size="11">adorsys-gis</text>
<text class="m ac" x="756" y="227" font-size="12" text-anchor="end">$455.20</text>
<text class="m bo" x="856" y="227" font-size="11" text-anchor="end">$500.00</text>
<text class="m hi" x="946" y="227" font-size="12" text-anchor="end">+$250.00</text>
<text class="m bo" x="1120" y="227" font-size="11" text-anchor="end">ada@adorsys.com</text>
<line x1="248" y1="248" x2="1120" y2="248" class="rule"/>

<text class="m bo" x="264" y="279" font-size="11">2 d ago</text>
<text class="m hi" x="372" y="279" font-size="12">batch-eval</text>
<text class="m bo" x="540" y="279" font-size="11">adorsys-gis</text>
<text class="m bo" x="756" y="279" font-size="12" text-anchor="end">$231.44</text>
<text class="m bo" x="856" y="279" font-size="11" text-anchor="end">$250.00</text>
<text class="m hi" x="946" y="279" font-size="12" text-anchor="end">+$100.00</text>
<text class="m bo" x="1120" y="279" font-size="11" text-anchor="end">joel@adorsys.com</text>
<line x1="248" y1="300" x2="1120" y2="300" class="rule"/>

<text class="m bo" x="264" y="331" font-size="11">18 h ago</text>
<text class="m hi" x="372" y="331" font-size="12">support-copilot</text>
<text class="m bo" x="540" y="331" font-size="11">adorsys-labs</text>
<text class="m bo" x="756" y="331" font-size="12" text-anchor="end">$139.02</text>
<text class="m bo" x="856" y="331" font-size="11" text-anchor="end">$150.00</text>
<text class="m hi" x="946" y="331" font-size="12" text-anchor="end">+$100.00</text>
<text class="m bo" x="1120" y="331" font-size="11" text-anchor="end">nina@adorsys.com</text>
<line x1="248" y1="352" x2="1120" y2="352" class="rule"/>

<text class="m bo" x="264" y="383" font-size="11">2 h ago</text>
<text class="m hi" x="372" y="383" font-size="12">agent-sandbox</text>
<text class="m bo" x="540" y="383" font-size="11">adorsys-labs</text>
<text class="m bo" x="756" y="383" font-size="12" text-anchor="end">$33.10</text>
<text class="m bo" x="856" y="383" font-size="11" text-anchor="end">$100.00</text>
<text class="m hi" x="946" y="383" font-size="12" text-anchor="end">+$500.00</text>
<text class="m bo" x="1120" y="383" font-size="11" text-anchor="end">joel@adorsys.com</text>
<line x1="248" y1="404" x2="1120" y2="404" class="rule"/>
<text class="s mu" x="248" y="428" font-size="11">Requests expire after 14 days without a decision.</text>

<!-- recent decisions ledger -->
<text class="m lab" x="248" y="486">RECENT DECISIONS</text>
<line x1="248" y1="500" x2="1120" y2="500" class="rule"/>
<text class="m bo" x="248" y="527" font-size="11">2026-02-19</text>
<text class="m hi" x="372" y="527" font-size="12">rag-catalogue</text>
<text class="m bo" x="540" y="527" font-size="11">adorsys-gis</text>
<text class="m bo" x="946" y="527" font-size="12" text-anchor="end">+$250.00</text>
<text class="m bo" x="1050" y="527" font-size="11" text-anchor="end">approved</text>
<text class="m mu" x="1120" y="527" font-size="11" text-anchor="end">sam</text>
<line x1="248" y1="540" x2="1120" y2="540" class="rule"/>
<text class="m bo" x="248" y="567" font-size="11">2026-02-17</text>
<text class="m hi" x="372" y="567" font-size="12">voice-transcribe</text>
<text class="m bo" x="540" y="567" font-size="11">adorsys-labs</text>
<text class="m mu" x="946" y="567" font-size="12" text-anchor="end">+$500.00</text>
<text class="m mu" x="1050" y="567" font-size="11" text-anchor="end">declined</text>
<text class="m mu" x="1120" y="567" font-size="11" text-anchor="end">sam</text>
<line x1="248" y1="580" x2="1120" y2="580" class="rule"/>
<text class="m bo" x="248" y="607" font-size="11">2026-02-14</text>
<text class="m hi" x="372" y="607" font-size="12">gateway-edge</text>
<text class="m bo" x="540" y="607" font-size="11">adorsys-gis</text>
<text class="m bo" x="946" y="607" font-size="12" text-anchor="end">+$100.00</text>
<text class="m bo" x="1050" y="607" font-size="11" text-anchor="end">approved</text>
<text class="m mu" x="1120" y="607" font-size="11" text-anchor="end">maya</text>
<line x1="248" y1="620" x2="1120" y2="620" class="rule"/>
<text class="m bo" x="248" y="647" font-size="11">2026-02-11</text>
<text class="m hi" x="372" y="647" font-size="12">doc-extract</text>
<text class="m bo" x="540" y="647" font-size="11">adorsys-labs</text>
<text class="m bo" x="946" y="647" font-size="12" text-anchor="end">+$100.00</text>
<text class="m bo" x="1050" y="647" font-size="11" text-anchor="end">approved</text>
<text class="m mu" x="1120" y="647" font-size="11" text-anchor="end">maya</text>
<line x1="248" y1="660" x2="1120" y2="660" class="rule"/>
<text class="m bo" x="248" y="687" font-size="11">2026-02-08</text>
<text class="m hi" x="372" y="687" font-size="12">gateway-prod</text>
<text class="m bo" x="540" y="687" font-size="11">adorsys-gis</text>
<text class="m bo" x="946" y="687" font-size="12" text-anchor="end">+$250.00</text>
<text class="m bo" x="1050" y="687" font-size="11" text-anchor="end">approved</text>
<text class="m mu" x="1120" y="687" font-size="11" text-anchor="end">sam</text>
<line x1="248" y1="700" x2="1120" y2="700" class="rule"/>
<text class="m bo" x="248" y="727" font-size="11">2026-02-03</text>
<text class="m hi" x="372" y="727" font-size="12">translate-batch</text>
<text class="m bo" x="540" y="727" font-size="11">adorsys-emea</text>
<text class="m mu" x="946" y="727" font-size="12" text-anchor="end">+$100.00</text>
<text class="m mu" x="1050" y="727" font-size="11" text-anchor="end">declined</text>
<text class="m mu" x="1120" y="727" font-size="11" text-anchor="end">maya</text>
<line x1="248" y1="740" x2="1120" y2="740" class="rule"/>
<text class="m mu" x="248" y="764" font-size="10">6 of 26 decisions</text>
<text class="m bo" x="1094" y="764" font-size="10">next ›</text>

<!-- right rail becomes the review detail for the selected row -->
<rect x="1144" y="72" width="280" height="812" rx="2" fill="#191919"/>
<text class="m lab" x="1160" y="98">REQUEST</text>
<text class="m hi" x="1160" y="126" font-size="16">gateway-prod</text>
<text class="s mu" x="1160" y="146" font-size="10">ada@adorsys.com · 3 days ago</text>
<line x1="1160" y1="166" x2="1408" y2="166" class="rule"/>

<text class="m lab" x="1160" y="192">CONSUMPTION</text>
<text class="m hi" x="1160" y="222" font-size="22">$455.20</text>
<text class="m mu" x="1262" y="222" font-size="11">of $500.00</text>
<rect x="1160" y="234" width="248" height="4" fill="#202020"/>
<rect x="1160" y="234" width="226" height="4" fill="#DA5C2C"/>
<text class="s mu" x="1160" y="256" font-size="10">91% of ceiling · 6 days left in period</text>
<polyline points="1160,296 1183,292 1206,290 1229,285 1252,283 1275,278 1298,272 1321,268 1344,262 1367,272 1390,266 1408,262" fill="none" stroke="#3a3a3a"/>
<text class="s mu" x="1160" y="316" font-size="10">Daily burn $9.10 · trending +4%</text>
<line x1="1160" y1="336" x2="1408" y2="336" class="rule"/>

<text class="m lab" x="1160" y="362">REFILL AMOUNT</text>
<rect x="1160" y="374" width="248" height="32" rx="2" fill="#111111" stroke="#3a3a3a"/>
<rect x="1243" y="374" width="82" height="32" fill="#202020"/>
<rect x="1243" y="404" width="82" height="2" fill="#DA5C2C"/>
<line x1="1243" y1="374" x2="1243" y2="406" stroke="#3a3a3a"/>
<line x1="1325" y1="374" x2="1325" y2="406" stroke="#3a3a3a"/>
<text class="m mu" x="1201" y="394" font-size="11" text-anchor="middle">+$100</text>
<text class="m hi" x="1284" y="394" font-size="11" text-anchor="middle">+$250</text>
<text class="m mu" x="1366" y="394" font-size="11" text-anchor="middle">+$500</text>
<text class="s mu" x="1160" y="426" font-size="10">Tiers come from the active policy for</text>
<text class="s mu" x="1160" y="440" font-size="10">plan “scale”. New ceiling: $750.00.</text>
<line x1="1160" y1="460" x2="1408" y2="460" class="rule"/>

<text class="m lab" x="1160" y="486">NOTE FROM REQUESTER</text>
<text class="s bo" x="1160" y="510" font-size="11">Q1 catalogue re-index lands this week;</text>
<text class="s bo" x="1160" y="528" font-size="11">expect roughly $180 of extra spend</text>
<text class="s bo" x="1160" y="546" font-size="11">before the period resets on 01 Mar.</text>
<line x1="1160" y1="570" x2="1408" y2="570" class="rule"/>

<text class="m lab" x="1160" y="596">HISTORY</text>
<text class="m bo" x="1160" y="618" font-size="11">2 previous refills</text>
<text class="m bo" x="1408" y="618" font-size="11" text-anchor="end">$350.00</text>
<text class="m mu" x="1160" y="638" font-size="11">last 2026-02-08 · approved by sam</text>
<text class="m mu" x="1160" y="658" font-size="11">0 declined · 0 expired</text>
<line x1="1160" y1="682" x2="1408" y2="682" class="rule"/>

<text class="m lab" x="1160" y="708">DECISION NOTE</text>
<rect x="1160" y="720" width="248" height="60" rx="2" class="ctl"/>
<text class="m mu" x="1172" y="740" font-size="10">Optional · visible to requester</text>

<line x1="1160" y1="796" x2="1408" y2="796" class="rule"/>
<rect x="1160" y="808" width="248" height="34" rx="2" fill="#DA5C2C"/>
<text class="m hi" x="1284" y="830" font-size="12" text-anchor="middle">Approve +$250.00</text>
<rect x="1160" y="848" width="248" height="30" rx="2" fill="none" stroke="#3a3a3a"/>
<text class="m bo" x="1284" y="868" font-size="11" text-anchor="middle">Decline</text>
</svg>
